<?xml version="1.0" encoding="UTF-8"?>
<svg width="770px" height="508px" viewBox="0 0 770 508" version="1.1" xmlns="http://www.w3.org/2000/svg" xmlns:xlink="http://www.w3.org/1999/xlink">
    <!-- Generator: sketchtool 51.3 (57544) - http://www.bohemiancoding.com/sketch -->
    <title>AC810605-AC5A-4B0A-BC72-0D9A9EFC99A9</title>
    <desc>Created with sketchtool.</desc>
    <defs>
        <path d="M46.0328866,274.807214 L48.7141147,276.608408 L49.8001378,278.381286 L48.9240329,280.368892 L46.8586806,279.620099 L44.6875017,277.124383 L44.2667978,277.124383 L44.2667978,275.098236 L46.0328866,274.807214 Z M44.4840863,281.399193 L46.0499157,284.20637 L47.453334,286.443964 L45.1150806,286.758135 L43.8196773,285.552373 L43.7707209,285.447388 C43.4971864,284.857434 43.1723642,284.077097 43.1723642,283.710433 L43.1723642,281.399193 L44.4840863,281.399193 Z M30.0992818,258.519797 L33.1291423,260.302194 L36.5428835,261.634878 L34.7501448,262.839073 L30.836737,262.663576 L29.3455079,261.135023 L29.247595,260.971278 L29.0214628,262.455172 L25.6714427,262.350187 L25.0497734,261.09585 L24.2439347,259.070577 L27.9350958,259.070577 L28.5249045,259.756114 L28.3220849,259.416088 L30.0992818,258.519797 Z M593.466903,444.536855 L595.064593,444.820472 L595.692479,446.564479 L592.411619,447.698162 L589.19215,448.857699 L587.020193,450 L585.439599,448.050724 L588.195925,447.355785 L589.000986,447.229646 L590.086576,445.549884 L592.221233,444.053454 L593.466903,444.536855 Z M690.800801,129.360261 L692.399268,129.521656 L693.554796,132.201911 L691.783038,132.852976 L687.464768,132.965012 L688.786592,131.365947 L690.363301,130.860608 L690.800801,129.360261 Z M709.12489,57.525589 L711,60.5670242 L711,62.3478542 L709.21037,66.3866483 L707.605686,66.896688 L705.059173,69.2384834 L701.201716,73.7011353 L699.926517,73.7011353 C699.852693,73.7011353 699.781979,73.6893833 699.712818,73.6697965 L700.088928,74.5214297 L699.236464,75.2837472 C699.171966,75.8494134 699.111353,76.4472019 699.110576,76.5608052 L699.109022,76.8154333 L698.893769,77.0543921 C698.81062,77.1327392 698.609355,77.3199888 697.882779,77.3199888 C697.761554,77.3199888 697.625563,77.3145045 697.472477,77.3027524 L697.248676,77.2855161 L696.339485,76.3187126 L695.731803,77.0536086 L695.272545,79.5520982 L693.730029,79.3883527 L694.308181,81.7223134 L692.102809,82.8990872 L690.273548,79.9281644 L690.506674,82.0983796 L689.016999,84.5373254 L686.939846,84.8985057 L686.721485,87.0248465 L682.262562,89.6447742 L680.911209,90.1689164 L679.845046,89.160589 L678.043759,91.2696934 L678.838719,93.8324277 L677.573622,94.9379056 L677.429084,98.1329011 L676.441407,103.862426 L676.372246,103.834221 L675.418761,106.631997 L675.005351,107.107564 L677.589941,111.060959 L675.617695,115.369267 L675.44829,116.223251 L676.430528,117.577873 L676.968272,117.183787 L678.820069,117.183787 L680.832723,119.487975 L683.718045,123.963946 L686.090491,124.296138 L687.626014,123.623136 L688.700724,122.538812 L688.232141,120.942881 L687.049415,120.034055 L685.778879,120.717242 L684.388671,118.895671 L685.286983,117.989979 L687.279433,117.798812 L688.949392,118.546243 L690.608472,120.713324 L691.413534,123.104478 L691.704164,125.452542 L687.999792,126.786793 L685.136228,128.197041 L683.686185,129.87602 L685.062405,129.87602 L687.361804,131.80806 L684.609364,132.964463 L682.586607,133.89131 L681.002128,132.585263 L679.683412,133.634331 L679.683412,131.312906 L679.755681,131.267465 L677.99558,132.028215 L677.996357,132.028999 L675.076843,133.501925 L674.267119,133.375786 L673.479153,134.605836 L671.465722,136.181396 L668.606043,137.313512 L668.595164,137.238299 L662.980714,140.04861 L659.025343,140.891625 L656.673102,142.209424 L656.174213,141.83179 L655.054431,143.07986 L652.211848,145.631626 L648.068423,148.477977 L648.435985,149.144711 L646.872487,150.637223 L646.899685,150.755527 L647.201194,150.685015 L648.257255,149.762869 L650.147129,147.654548 L651.235828,147.055193 L652.654011,147.591871 L654.200413,147.727411 L660.115596,144.782343 L662.284444,142.746885 L663.540216,141.284928 L668.00147,142.997596 L664.68331,146.52635 L655.997037,153.027594 L653.977389,153.811065 L649.442312,155.309062 L646.117936,156.231991 L645.264695,155.887264 L645.281791,156.087049 L643.370158,157.831839 L644.458079,157.709618 L645.758922,156.756133 L647.353503,160.176769 L647.509698,167.522594 L648.008587,168.446307 L647.066758,173.102476 L644.615827,178.270252 L642.588409,181.298368 L641.960523,185.09742 L640.044227,187.304459 L638.637701,187.304459 L638.319872,184.424419 L638.936102,183.647215 L638.871604,183.158329 L636.031352,182.702349 L632.162238,180.805565 L629.594744,178.459852 L628.993279,177.249389 L628.90236,177.616837 L630.318212,180.065185 L632.117944,180.85414 L633.689991,183.857185 L635.050669,187.428247 L637.413012,189.016343 L638.499379,188.468697 L640.581971,195.136037 L640.828308,195.092162 L640.312322,199.805525 L639.013811,202.73179 L638.795449,205.815533 L636.538013,208.795857 L636.248159,212.161649 L636.648359,214.903798 L635.147805,219.104771 L632.659574,221.271852 L631.186995,216.717534 L631.542123,212.205524 L632.76992,208.957252 L633.288237,206.494019 L633.214414,205.245949 L632.706976,205.446518 L631.566213,204.987404 L629.274585,201.953803 L629.163461,202.010213 L629.769589,204.017466 C630.338416,206.309903 630.338416,206.540243 630.338416,206.617024 C630.338416,206.759615 630.338416,207.094941 629.468856,207.972429 L628.932667,208.513024 L627.634932,206.255843 L627.477184,204.811906 L626.368281,202.273459 L626.603738,202.224101 L624.856071,201.997677 L622.549678,198.957809 L622.825544,195.819224 L623.7868,195.031052 L623.484513,194.687891 L622.932004,195.648427 L621.624945,196.17492 L621.293129,192.158063 L622.921902,191.376158 L622.611068,187.926535 L621.286912,187.704029 L620.908471,186.302399 L621.970748,183.254696 L620.846304,184.031899 C620.693218,184.524703 620.547126,185.102121 620.547126,185.305824 C620.547126,185.830749 620.052899,186.542925 619.599857,187.085087 L620.369173,187.861507 L620.55412,189.815484 L619.564111,193.8864 L621.078653,197.887588 L623.033803,199.612791 L623.033803,201.101386 L624.291129,202.874382 L623.182226,205.222445 L621.860402,205.032845 L623.413798,206.527708 L625.954871,206.848148 L626.936331,208.167513 L626.632491,211.756595 L627.774808,212.66072 L627.394812,214.117193 L628.286908,214.716549 L628.004825,216.703432 L626.025586,216.629785 L626.045013,216.940824 L627.829981,218.114463 L627.913129,219.283402 L629.281579,220.664662 L629.79057,223.224263 L628.103515,224.14014 L628.512263,224.526392 L633.133597,223.160801 L636.4401,228.747734 L636.478954,228.739116 L636.580753,228.985126 L636.65613,229.112049 L636.635149,229.116749 L638.219628,232.950274 L640.949533,237.911997 L642.86816,239.847171 L643.075642,240.648662 L643.973954,240.389333 L646.344845,245.345572 L646.658788,248.836719 L646.480058,251.902442 L643.591627,253.187335 L641.48106,255.011256 L640.458414,256.141805 L638.166786,255.721081 L641.007815,252.966396 L643.682546,250.807149 L644.519469,250.469473 L644.6337,249.31542 L644.187653,244.737598 L643.032902,242.91211 L642.916339,242.543095 L642.148578,242.619875 L641.892139,246.244213 L639.804108,247.297198 L639.379818,248.772475 L638.277132,251.253728 L635.047561,252.660842 L633.058219,252.410132 L633.65269,253.385553 L632.327758,257.816866 L635.209972,257.816866 L635.500602,258.597204 L636.735393,257.352268 L639.310658,256.354125 L637.109948,260.559015 L634.502046,264.633066 L633.048894,264.633066 L632.257043,264.270318 L630.409908,264.683991 L626.492615,266.506345 L621.557338,270.563159 L619.018597,274.100532 L617.570884,279.095944 L617.106964,281.350774 L613.084764,281.782467 L609.197,282.934953 L604.837544,287.411707 L602.897936,292.000498 L602.490743,297.171408 L601.149491,297.847543 L600.265944,300.034212 L598.352757,300.51683 L596.752736,303.242526 L594.694233,305.317941 L592.852538,308.063224 L591.550141,308.719773 L588.663265,311.46819 L586.937355,311.588845 L587.596325,313.713619 L583.38607,318.195857 L581.48687,319.510522 L581.353212,319.566148 L581.819463,320.978747 L579.234097,325.875442 L579.614092,327.866242 L578.394843,331.308031 L576.650284,338.97508 L577.346553,344.509521 L577.319355,344.507954 L579.101215,350.206923 L581.949237,357.732948 L586.047591,365.05997 L588.889397,369.939429 L592.584443,374.206997 L595.763504,377.207691 L597.200338,379.833887 L596.131843,381.107811 L595.735529,381.908518 L597.849205,387.348159 L600.1284,389.690738 L602.148048,393.843135 L604.917584,398.335559 L608.493736,404.970777 L609.503949,410.925941 L609.897155,420.318977 L610.375063,421.766049 L610.104637,424.866244 L608.326663,425.837748 L608.517049,427.052912 L608.046912,428.550126 L608.218648,429.931385 L608.830992,428.203048 L610.515716,426.990234 L610.280258,431.021977 L609.457324,432.433009 L607.490518,437.66738 L604.473868,440.865509 L597.863969,446.109282 L596.004401,444.389563 L598.519053,442.805384 L601.120739,441.337942 L604.430351,438.153132 L606.582103,434.560917 L606.342761,434.8461 L603.715431,436.127859 L600.802134,436.278285 L599.711881,437.451142 L597.515058,438.374071 L596.185462,437.857763 L595.085108,436.849436 L594.828669,434.35408 L594.243523,431.865776 L591.724986,427.982892 L589.156715,426.328201 L586.626521,426.132334 L585.727432,427.604476 L582.73254,423.318888 L582.265511,420.487424 L580.38263,417.567426 L579.545708,417.051902 L578.408054,418.556951 L576.345666,418.210656 L574.616648,414.059826 L572.361543,410.992536 L570.135967,406.891848 L568.152842,404.507745 L565.00875,401.252422 L566.957683,399.00621 L569.316918,394.917274 L569.237655,394.271694 L566.31037,393.615928 L566.170495,393.669205 L568.007527,394.38138 L566.598669,398.640329 L565.234105,399.500581 L563.529177,395.665489 L562.502646,391.816295 L562.25631,389.576351 L563.431264,385.861914 L563.431264,378.719007 L561.145853,375.838967 L560.248318,373.681287 L556.491104,372.734071 L554.772966,372.188775 L553.507092,370.114143 L550.793506,368.8269 L549.948036,366.192086 L547.93305,365.43917 L546.070374,362.544244 L542.920842,361.404294 L540.792402,360.294899 L538.972465,360.294899 L536.34125,360.825309 L536.255771,361.644036 L536.950486,362.52074 L536.248,364.080631 L533.696048,363.914535 L530.871338,366.6512 L527.946384,368.207958 L524.88544,368.207958 L521.790305,369.475614 L521.491903,366.765587 L520.459932,365.530053 L518.240573,364.68077 L516.978585,363.488327 L510.820951,360.499385 L505.082167,359.129093 L501.771001,359.58429 L497.151221,359.972892 L492.470829,361.616614 L489.243589,362.208919 L489.233487,361.903365 L485.086176,363.913752 L481.291662,363.489111 L484.401562,361.282856 L484.401562,360.946747 L482.177541,356.605533 L481.165774,356.339936 L480.174989,359.270118 L478.914554,361.916684 L478.051211,361.6268 L475.706741,361.6268 L475.336848,363.115395 L470.69531,363.115395 L469.49238,362.467464 L468.082745,362.265329 L462.714631,363.777428 L461.58941,363.272873 L459.776467,366.225776 L458.191987,367.387663 L458.178777,367.349273 L456.698427,368.685092 L455.628379,369.826609 L456.065101,370.621049 L457.655798,370.931304 L458.030353,369.297766 L459.750823,367.379829 L461.71996,367.115015 L462.002043,369.681667 L463.138143,371.355161 L461.385813,374.39738 L460.112945,374.39738 L460.667785,374.708418 L460.206973,376.099863 L458.389367,375.860904 L457.877267,377.128561 L459.875157,378.574848 L464.396246,379.203976 L467.003372,381.291927 L468.39358,381.291927 L468.39358,383.249038 L466.107391,386.354717 L464.943315,385.28763 L462.602731,385.28763 L461.742496,383.985501 L458.859505,382.605808 L455.27325,382.088717 L454.773584,379.490726 L454.299561,380.055609 L452.994055,380.369781 L453.103625,381.197127 L452.763261,381.883447 L455.17456,382.230525 L453.304113,383.408082 L451.483399,386.12281 L448.316772,387.343458 L446.925787,385.941045 L449.075208,385.187345 L448.650919,383.635289 L448.16524,383.258439 L447.01826,384.222109 L445.154029,384.656152 L444.394039,386.496526 L441.138823,387.681918 L434.296576,384.725097 L432.45255,382.86592 L433.949218,381.936723 L434.309009,381.212013 L433.361741,380.256961 L429.606082,380.004683 L429.327885,377.851705 L428.365074,376.298081 L426.336101,375.914964 L424.772603,376.790885 L423.312458,375.564752 L421.434239,376.17586 L421.184795,376.645942 L422.613857,377.499926 L424.569784,377.120726 L427.772934,378.230121 L426.742518,380.959735 L423.732084,380.011735 L421.435794,379.215728 L418.60953,380.370564 L413.300475,379.457037 L405.400613,376.673364 L399.295821,376.900571 L395.455459,378.136105 L395.457013,378.161176 L390.692696,379.533817 L383.220231,382.957586 L382.473451,384.388988 L378.706136,387.136622 L377.713019,387.75478 L373.325588,391.868004 L371.189377,393.5462 L366.937937,396.131654 L362.509321,398.011985 L357.715474,400.623295 L356.295737,401.808687 L352.246339,404.342433 L352.342697,404.375338 L348.144876,410.194962 L344.786308,415.197426 L343.277983,420.216343 L343.052628,424.16112 L343.734133,428.82199 L345.766991,434.550732 L346.155534,438.624782 L346.372341,440.259886 L344.922298,440.747205 L344.954936,440.796564 L343.891104,442.40503 L341.050853,444.160006 L336.407761,440.957959 L332.416644,440.152551 L331.40954,440.542719 L328.629124,440.01701 L325.359921,437.584332 L321.325288,436.710762 L315.238369,433.965479 L313.454178,430.569914 L312.494476,425.733547 L310.024895,424.25592 L309.414105,421.894538 L309.966614,421.33749 L310.145344,419.298114 L309.344167,418.925182 L308.653337,417.765645 L309.657333,414.341092 L308.672765,412.913608 L306.200075,411.901363 L303.411889,408.250387 L300.687423,403.215801 L297.244153,401.06674 L297.421328,399.364257 L293.326082,389.745581 L292.737051,386.624232 L291.325862,385.123101 L291.17433,383.976882 L286.614386,379.90675 L284.457194,377.314243 L284.457194,376.51902 L282.774024,375.147945 L277.642922,374.311198 L271.772033,373.833281 L269.490507,372.126881 L266.295904,373.414907 L263.658472,374.522735 L262.028922,376.808121 L261.189668,379.794713 L257.709875,384.645183 L255.577549,386.795812 L253.108745,385.828225 L251.770602,385.004013 L250.241296,384.501025 L246.923913,382.528244 L246.923913,381.957094 L245.772271,380.730961 L241.731421,379.085672 L235.792926,372.735638 L233.946568,368.931885 L233.946568,362.586552 L231.469993,357.464217 L231.128075,355.60269 L229.968662,354.871711 L229.137179,353.272646 L225.310805,351.652428 L224.208119,350.284487 L218.603771,343.945422 L217.676707,341.646717 L214.007304,339.836115 L212.802043,336.270538 L210.971227,334.212359 L209.855331,333.881734 L209.856885,333.899754 L199.645191,332.633665 L187.242889,330.686739 L186.31194,338.191609 L172.862903,336.475024 L172.872228,336.41548 L152.951614,334.279738 L143.156438,332.320276 L130.101384,324.485564 L118.682097,317.750062 L109.264585,311.78628 L94.4455449,303.328708 L93.8875968,302.204427 L94.1999856,300.630433 L95.8256506,299.243689 L85.0591165,298.555801 L69.7077717,296.436512 L61.5561338,295.203328 L61.0448109,293.268938 L61.0448109,285.904309 L60.8272267,283.589151 L58.8238975,280.299356 L58.2418597,278.614109 L55.2259868,275.322747 L53.1286302,271.89506 L51.2286536,271.745417 L48.4210399,271.037159 L47.9392463,269.418508 L49.1546096,268.928055 L48.8010352,267.023436 L47.8506584,265.682134 L44.1781474,265.032636 L40.9796591,263.296464 L40.0424928,261.321333 L38.0710242,257.653904 L36.0420512,255.466453 L33.894184,255.466453 L30.7345501,253.750651 L27.3689882,252.397596 L23.9614637,251.988624 L21.7421045,249.470548 L22.2099106,247.677965 L23.6350874,242.036973 L24.2109085,240.65728 L24.2109085,239.221177 L23.0204119,238.471395 L22.6054477,236.043418 L18.8513426,229.556277 L17.8069383,227.057787 L16.6234354,223.326897 L15.4057408,219.260682 L12.8973054,215.783637 L12.4667995,213.266344 L13.2058088,209.633388 L14.3395781,209.633388 L15.6660648,208.614092 L16.4081825,206.164961 L15.8144883,204.547876 L13.8134905,204.174944 L12.2010359,201.949102 L10.460362,198.866143 L10.2995051,192.195669 L10.7945092,190.613841 L11.2529903,188.840062 L11.5739271,187.280955 L7.19271309,182.399145 L7.19271309,180.364471 L7.4406037,179.947664 L7.65041707,177.694401 L6.67750471,174.67647 L4.91895785,170.987888 L2.84646803,167.510842 L1.33037217,164.205377 L2.15019848,161.145922 L2.62422127,156.524226 L4.01442911,154.110351 L4.23589878,149.263015 L3.41063286,146.539669 L2.20226328,143.34389 L0,139.891132 L0.683059076,137.137231 L1.94893306,133.554417 L3.32282208,132.938609 L3.53185836,132.168457 L5.97657264,130.100876 L9.91640144,121.08704 L10.0997939,115.229026 L11.5723729,110.923852 L9.4796788,108.198939 L10.5473957,103.230948 L11.1721733,96.4178826 L12.7279006,94.0235947 L19.0191933,84.155775 L24.0345099,73.5648113 L27.89663,62.5750609 L30.3903007,57.458994 L32.8645443,49.6650225 L34.7489792,44.2943275 L38.9825467,42.7485388 L38.2629646,42.6239669 L36.6116556,43.5492464 L34.369761,40.6981947 L34.6759331,37.7170868 L36.8937381,37.4687264 L37.7951585,35.19666 L35.923934,34.3983028 L36.1275307,30.6023849 L38.8589899,30.2271022 L37.4695592,28.8262557 L36.2433166,22.9721589 L36.7220019,20.6389817 L36.7220019,14.6634469 L35.2851689,12.0881771 L37.2651854,3.93067499 L39.650064,4.50339243 L41.6394056,6.92745231 L43.6435118,8.86811046 L46.0726844,10.322233 L49.4530109,11.9095456 L51.9490128,12.4211523 L54.1528303,13.5705046 L56.6356218,14.3069675 L57.7810474,14.2058997 L57.7810474,12.591949 L59.0679027,11.5029241 L61.3634164,10.0699553 L61.8016932,11.6917406 L61.8996061,12.279344 L61.8996061,10.375509 L63.2400804,7.67253342 L62.4894148,5.88543562 L60.5264942,1.92890608 L60.9235854,0.864168728 L62.4218083,0 L66.0896568,1.26138862 L73.5963128,3.36657573 L80.2481737,4.84733628 L95.8240965,9.32252375 L113.676883,13.7828253 L125.915219,16.6534637 L125.912111,16.6644323 L136.761793,18.8275963 L136.760239,18.8338641 L162.380782,24.2766385 L176.66441,26.9380901 L201.753426,31.088137 L224.506521,34.2196714 L247.188123,36.9602536 L271.207091,39.3741284 L271.207091,39.3670771 L291.384143,41.111084 L311.955955,42.1280296 L326.40044,42.5973289 L348.585484,43.0587934 L348.580044,43.043124 L372.212023,43.0666281 L372.438933,36.8019925 L373.43982,36.4650998 L375.485889,36.9234305 L377.266194,37.6794802 L377.934489,42.3168462 L379.050385,46.8805659 L380.008533,47.8465859 L383.975559,47.8465859 L384.212571,49.0445134 L389.20846,49.2842555 L389.20846,50.9021236 L391.89174,50.9021236 L392.058814,50.1742788 L393.143627,49.080553 L395.359877,48.4976505 L396.439251,49.3351812 L398.67182,49.3351812 L401.809696,51.4435022 L405.826456,53.2776082 L407.188689,53.5643587 L407.483982,52.9673536 L409.52228,52.2825998 L409.976098,54.9362167 L411.356981,55.6319392 L411.657714,55.3287358 L413.453561,55.6076516 L413.453561,57.3532254 L414.999963,57.9533643 L417.163372,57.9533643 L418.198451,57.4315725 L420.744964,54.8641374 L423.394829,54.3493968 L424.460992,56.8565046 L424.634282,56.8565046 L425.402043,56.2367789 L432.859743,55.9829343 L434.175351,58.2667528 L434.602748,57.5898337 L439.132386,57.1745939 L438.387937,60.0546341 L435.107077,61.5816194 L427.950887,64.7969852 L424.290033,66.3349392 L422.013169,68.2599279 L420.194009,71.0106953 L418.329779,74.20099 L416.873519,74.852838 L413.320679,78.8328717 L412.251408,78.9989676 L410.02894,80.7092852 L410.689464,81.1746671 L412.705226,81.5256622 L414.792481,81.0900522 L420.441123,78.6268187 L422.765389,77.1084516 L424.706551,76.362587 L426.956994,78.1536021 L425.687234,79.4337941 L424.284593,81.7419002 L423.978421,82.7196723 L424.072448,82.7768657 L425.355418,82.0936788 L426.346981,81.9119135 L428.808791,82.6475929 L429.25717,83.475722 L429.423466,83.5062773 L429.93712,82.5567103 L429.924687,82.5394739 L429.958879,82.5159698 L430.120513,82.2174672 L430.213763,82.3412557 L431.122955,81.7168291 L433.141825,81.1135563 L435.600527,79.5293776 L435.600527,78.8242535 L436.369843,78.0494005 L441.068108,77.2596615 L442.926122,75.7953538 L446.067106,74.2840379 L446.194548,73.4465072 L447.834978,70.9229465 L449.246944,70.2906852 L450.225296,68.9376305 L452.145477,67.0345789 L455.667233,65.0986216 L459.711969,64.6645786 L461.008926,65.9729755 L460.583083,67.4059443 L457.651135,68.2050849 L456.496385,70.6111249 L454.793011,71.2089135 L454.444876,72.8910261 L452.596964,75.3754133 L452.447764,76.6806763 L452.836307,76.2599523 L456.041012,73.6564775 L457.250936,74.8763421 L458.969851,74.9029802 L461.627487,75.7734166 L462.910457,76.7214168 L464.096291,79.1924849 L465.941872,81.0524456 L468.553659,80.918472 L469.943867,79.9837909 L471.433542,81.204439 L472.315535,81.4825712 L473.241823,80.9090703 L474.093509,80.9090703 L475.151901,80.2423363 L478.314644,77.3716979 L481.227941,76.444068 L486.252583,76.2137275 L489.653113,74.7658727 L491.800981,73.682332 L493.648892,73.9306924 L493.686193,78.6009642 L495.712057,79.16428 L501.624132,77.599688 L502.622688,76.593711 L504.528104,77.233807 L504.528104,82.8928194 L506.76689,85.078704 L507.797307,85.5746413 L508.28998,85.9569752 L508.182742,85.5041289 L507.220709,85.0191602 L507.681521,83.31276 L509.313403,83.1074905 L511.36258,82.9194574 L511.557629,83.176436 C511.957829,83.7044956 512.463712,84.3328395 512.644773,84.5130378 C512.859249,84.6227238 513.143663,84.9361123 513.230696,86.2366745 L513.249346,86.5171571 L511.850591,87.8177193 L508.686294,87.6187176 L508.631121,87.3852432 L507.402547,87.6719937 L506.677525,87.3977788 L503.988029,87.0311143 L502.370135,87.4972796 L500.631792,87.3445027 L498.169205,88.5087409 L496.513233,88.4946384 L492.080732,87.4925788 L488.397342,87.6351705 L486.930979,89.6588766 L481.295548,90.1454123 L479.765464,90.6601528 L478.953409,92.9674755 L477.55543,94.1599187 L476.721616,93.824593 L475.772793,92.80373 L472.54089,94.5414691 L471.623151,94.5414691 L470.851504,93.4085698 L469.530457,96.4930959 L468.728504,99.6849575 L466.140029,105.310281 L466.156347,105.320466 L465.022578,107.71162 L463.630039,108.95969 L462.047891,112.526834 L461.106062,114.284943 L461.193873,115.085651 L461.531905,115.153813 L462.260813,113.884589 L463.372046,113.286801 L463.96574,111.567082 L465.498932,110.102774 L470.89269,101.983662 L472.26891,101.116359 L472.753035,102.745196 L472.542445,104.839415 L470.289671,110.167019 L468.218735,114.577178 L467.842625,116.999671 L467.422221,118.843179 L468.01747,119.8186 L467.834854,122.303771 L466.319536,124.231894 L465.997822,125.4024 L466.94509,130.964262 L465.7103,133.121158 L465.108835,135.320361 L464.394692,137.556388 L465.204416,139.415565 L465.664452,144.123444 L466.924109,147.696072 L466.739162,150.496982 L467.061653,154.965902 L468.130924,156.83448 L469.410009,158.286253 L470.459853,161.293998 L471.087739,163.352961 L471.145243,163.618557 L474.118376,164.44747 L475.062536,165.082082 L475.527234,164.954376 L477.055763,163.560581 L479.181095,162.012442 L479.358271,161.999123 L482.408335,159.020365 L482.668659,156.933981 L484.500252,152.931227 L485.863262,144.762756 L484.739595,141.136852 L482.509357,136.108533 L479.643462,131.301154 L479.931761,128.846539 L480.164887,128.220545 L480.706516,126.579173 L480.365375,125.758879 L479.880473,121.924571 L481.157226,118.705288 L481.975498,114.132166 L481.371702,112.208745 L481.371702,110.872926 L483.256137,110.460037 L483.577851,109.052139 L483.11937,108.433197 L483.357935,107.226651 L484.959511,105.522601 L486.89601,104.727378 L487.67232,101.440716 L489.78211,100.544425 L490.913548,101.686726 L490.314414,104.026955 L489.374916,105.776446 L489.374916,108.325861 L491.455177,107.102863 L491.240701,103.152601 L490.999027,101.87946 L491.269453,99.9732749 L492.689968,98.2551226 L494.889123,97.998144 L495.784326,97.7207952 L494.874358,97.5022068 L493.683861,97.1441604 L493.392454,93.6107054 L495.89001,91.6128538 L498.535213,89.9526783 L501.221601,91.962282 L501.577506,92.1416969 L501.917093,91.7993199 L504.421643,91.7993199 L508.778768,94.5148311 L512.121794,95.6383288 L514.407982,95.6383288 L515.525433,97.8923754 L517.695059,99.7437179 L517.424632,101.931953 L515.874345,101.639718 L515.7368,101.778393 L516.153319,102.88152 L517.098256,103.467556 L518.510999,105.5132 L518.758113,113.84855 L516.816951,115.153813 L515.709602,119.932204 L513.126567,120.927996 C513.057406,121.896366 512.914422,123.743008 512.780763,124.430112 C512.980474,124.670637 513.639444,125.15639 514.303853,125.546558 L515.175744,125.897553 L515.673856,125.623338 L517.64921,122.894508 L519.182402,118.826726 L522.383999,117.336564 L523.918745,116.274177 L526.40309,118.045605 L528.338813,120.646729 L530.154864,127.890704 L532.658637,134.433472 L532.985791,141.934425 L530.984793,142.996029 L529.836259,142.707711 L529.652866,142.150663 L529.52931,142.082501 L528.687725,143.7795 L528.515989,146.901633 L527.405532,147.207186 L526.452047,148.168506 L526.608241,152.193197 L524.916524,153.642619 L523.39188,156.351862 L523.164194,157.89295 L523.646764,157.821654 L527.382997,160.020858 L531.495339,159.54294 L534.142872,161.976402 L535.41574,161.853397 L539.747998,159.812454 L542.001549,159.420719 L544.2924,158.842517 L547.288846,155.897449 L550.042063,152.913207 L558.25276,147.992224 L558.246543,147.956185 L561.939258,145.662965 L562.840679,145.313536 L568.047159,140.247612 L568.060369,140.380018 L569.259414,139.473542 L570.173267,138.692421 L570.975221,137.39891 L572.439252,136.497135 L573.761076,135.234963 L574.200907,133.941452 L575.900395,131.75165 L576.511185,131.192252 L576.431922,130.792681 L575.57635,128.737636 L574.139517,128.576241 L572.415939,122.996359 L575.171488,121.289176 L578.590669,120.113969 L581.796928,119.070385 L584.283605,118.67865 L589.441128,118.510203 L590.958778,119.556137 L591.85709,119.669741 L593.394168,118.718607 L595.586329,117.812914 L599.443786,117.439198 L600.85653,116.217767 L602.267719,113.710659 L603.685902,112.012877 L605.432015,112.012877 L606.510611,111.382966 L606.620181,110.101991 L605.507393,108.529564 L605.209769,107.026866 L606.094093,105.32595 L606.094093,104.883289 L605.153818,104.883289 L603.499401,104.141342 L602.6889,103.017844 L602.499291,100.536591 L607.171912,96.0684545 L607.579883,95.5200247 L608.722977,93.2918326 L611.003726,89.7184205 L613.122064,86.7913721 L614.874394,84.7872527 L616.879277,83.2986575 L619.3644,82.3349879 L623.722301,81.2961051 L626.18178,81.4512324 L629.571432,80.3120653 L635.987058,78.3886435 L635.997161,78.457589 L656.704963,73.0257832 L656.603165,71.2950953 L656.776455,69.2831413 L658.455739,67.1379971 L659.501697,68.1925494 L659.79699,67.3996765 L660.780005,67.2860732 L660.775342,67.2711872 L662.587508,67.0314451 L663.131469,67.1779542 L663.137685,65.8209821 L663.826184,61.3121053 L665.826405,57.6673973 L666.861484,54.8845076 L665.462728,53.1044611 L665.462728,47.993095 L666.140348,47.1383279 L666.695188,45.2532962 L666.556089,44.2026614 L666.39057,40.269636 L667.831288,36.3969378 L670.109706,29.3676343 L671.901667,25.7526982 L673.361036,25.7597494 L674.865475,25.9924404 L674.865475,27.2044703 L675.672868,28.6437069 L677.204506,28.9868673 L677.429861,28.7604441 L677.429861,27.920563 L680.741804,25.5004205 L682.311519,23.9170252 L683.902215,24.1497161 L688.564734,26.030047 L690.310848,26.9529761 L690.381563,27.1880174 L697.327939,50.1969995 L701.945388,50.1969995 L702.762106,52.2481271 L702.907421,55.7408417 L704.550182,57.0547229 L704.136772,56.1364946 L707.369452,55.5543755 L709.12489,57.525589 Z M444.883292,60.5697664 L442.980207,61.3916277 L440.805142,60.1012506 L442.757184,57.8064635 L444.533603,57.1553989 L448.752406,54.0826249 L450.968657,53.5005058 L452.005291,54.5456563 L447.509068,59.0498323 L444.883292,60.5697664 Z M56.5293164,9.82927292 L54.9409515,7.3738742 L54.397768,4.74454486 L57.0499644,4.47738119 L57.2706569,5.10102426 L57.9560473,4.36377786 L60.3455884,4.36377786 L61.3223862,6.209636 L60.2033816,7.48904446 L60.5709435,7.98341479 L59.8249404,10.1332597 L58.3508073,10.5492829 C58.2381297,10.562602 58.1324459,10.5680863 58.0337559,10.5680863 C57.6801816,10.5680863 57.4128638,10.4881722 57.2364651,10.3291275 C57.0864874,10.193587 57.0041163,10.0086878 57.0041163,9.80890267 C57.0041163,9.72507125 57.0041163,9.61851917 57.1758524,9.27065796 L56.5293164,9.82927292 Z" id="path-1"></path>
        <filter x="-6.7%" y="-10.2%" width="113.4%" height="121.4%" filterUnits="objectBoundingBox" id="filter-2">
            <feMorphology radius="2" operator="dilate" in="SourceAlpha" result="shadowSpreadOuter1"></feMorphology>
            <feOffset dx="0" dy="2" in="shadowSpreadOuter1" result="shadowOffsetOuter1"></feOffset>
            <feGaussianBlur stdDeviation="13.5" in="shadowOffsetOuter1" result="shadowBlurOuter1"></feGaussianBlur>
            <feColorMatrix values="0 0 0 0 0   0 0 0 0 0.329411765   0 0 0 0 0.62745098  0 0 0 0.138671875 0" type="matrix" in="shadowBlurOuter1"></feColorMatrix>
        </filter>
    </defs>
    <g id="Pages" stroke="none" stroke-width="1" fill="none" fill-rule="evenodd">
        <g id="D-4.0-Locations---Zip-search-results" transform="translate(-94.000000, -193.000000)">
            <g id="Map" transform="translate(123.000000, 220.000000)">
                <g opacity="0.15">
                    <use fill="black" fill-opacity="1" filter="url(#filter-2)" xlink:href="#path-1"></use>
                    <use fill="#0054A0" fill-rule="evenodd" xlink:href="#path-1"></use>
                </g>
                <circle id="Oval-6-Copy" fill="#0054A0" cx="59.5" cy="17.5" r="7.5"></circle>
                <circle id="Oval-6" fill="#0054A0" cx="53.5" cy="15.5" r="7.5"></circle>
                <circle id="Oval-6-Copy-2" fill="#0054A0" cx="14.5" cy="185.5" r="7.5"></circle>
                <circle id="Oval-6-Copy-3" fill="#0054A0" cx="59.5" cy="274.5" r="7.5"></circle>
                <circle id="Oval-6-Copy-4" fill="#0054A0" cx="145.5" cy="289.5" r="7.5"></circle>
                <circle id="Oval-6-Copy-5" fill="#0054A0" cx="356.5" cy="316.5" r="7.5"></circle>
                <circle id="Oval-6-Copy-6" fill="#0054A0" cx="465.5" cy="157.5" r="7.5"></circle>
                <circle id="Oval-6-Copy-7" fill="#0054A0" cx="574.5" cy="348.5" r="7.5"></circle>
                <circle id="Oval-6-Copy-16" fill="#0054A0" cx="609.5" cy="425.5" r="7.5"></circle>
                <circle id="Oval-6-Copy-8" fill="#0054A0" cx="522.5" cy="284.5" r="7.5"></circle>
                <circle id="Oval-6-Copy-9" fill="#0054A0" cx="616.5" cy="185.5" r="7.5"></circle>
                <circle id="Oval-6-Copy-10" fill="#0054A0" cx="617.5" cy="176.5" r="7.5"></circle>
                <circle id="Oval-6-Copy-11" fill="#0054A0" cx="630.5" cy="165.5" r="7.5"></circle>
                <circle id="Oval-6-Copy-12" fill="#0054A0" cx="647.5" cy="146.5" r="7.5"></circle>
                <circle id="Oval-6-Copy-15" fill="#0054A0" cx="677.5" cy="110.5" r="7.5"></circle>
                <circle id="Oval-6-Copy-14" fill="#0054A0" cx="672.5" cy="116.5" r="7.5"></circle>
                <circle id="Oval-6-Copy-13" fill="#0054A0" cx="672.5" cy="123.5" r="7.5"></circle>
            </g>
        </g>
    </g>
</svg>